<svg xmlns="http://www.w3.org/2000/svg" xmlns:xlink="http://www.w3.org/1999/xlink" viewBox="0 0 500.75 107.11"><defs><style>.cls-1{font-size:60px;font-family:BookAntiqua-Italic, Book Antiqua;font-style:italic;}.cls-2{fill:#f7931e;}.cls-2,.cls-3,.cls-4,.cls-5,.cls-6,.cls-9{stroke:#000;}.cls-10,.cls-2,.cls-3,.cls-4,.cls-5,.cls-6,.cls-7,.cls-8,.cls-9{stroke-miterlimit:10;}.cls-2,.cls-3,.cls-4{stroke-width:0.25px;}.cls-11,.cls-3,.cls-5,.cls-7{fill:#ff0;}.cls-4,.cls-6{fill:#29abe2;}.cls-6,.cls-9{stroke-width:0.5px;}.cls-10,.cls-7,.cls-8{stroke:#ff0;}.cls-10,.cls-8{fill:none;}.cls-9{fill:url(#Dégradé_sans_nom_26);}.cls-10{stroke-linecap:round;}</style><linearGradient id="Dégradé_sans_nom_26" x1="33.56" y1="106.24" x2="33.56" y2="29.74" gradientUnits="userSpaceOnUse"><stop offset="0" stop-color="aqua"/><stop offset="0.17" stop-color="#00f5ff"/><stop offset="0.39" stop-color="#00aeff"/><stop offset="0.69" stop-color="#0051ff"/><stop offset="0.9" stop-color="#0017ff"/><stop offset="1" stop-color="blue"/></linearGradient></defs><title>Logo Aquaprima</title><g id="AQUA-PRIMA"><text class="cls-1" transform="translate(71.91 88.59)"><tspan class="cls-2">AQUA</tspan><tspan x="180" y="0"> </tspan><tspan class="cls-3" x="195" y="0">-</tspan><tspan x="214.98" y="0"> </tspan><tspan class="cls-4" x="229.98" y="0">PRIMA</tspan></text></g><g id="Goutte"><path class="cls-5" d="M75,26c-.17-1.37,92.69-22.87,215-22,114,.81,201.17,20.69,201,22S408,10.68,290,10C163.39,9.28,75.17,27.33,75,26Z" transform="translate(-1.75 -3.47)"/><path class="cls-6" d="M26,17" transform="translate(-1.75 -3.47)"/><path class="cls-5" d="M196,34" transform="translate(-1.75 -3.47)"/></g><g id="Eclair"><path class="cls-7" d="M20.5,89.5" transform="translate(-1.75 -3.47)"/><path class="cls-7" d="M42.5,70.5" transform="translate(-1.75 -3.47)"/><path class="cls-8" d="M21,89" transform="translate(-1.75 -3.47)"/><path class="cls-8" d="M43,89" transform="translate(-1.75 -3.47)"/><path class="cls-8" d="M42,89" transform="translate(-1.75 -3.47)"/><path class="cls-8" d="M20,111" transform="translate(-1.75 -3.47)"/><path class="cls-7" d="M20.8,107.92" transform="translate(-1.75 -3.47)"/><path class="cls-7" d="M42.8,88.92" transform="translate(-1.75 -3.47)"/><path class="cls-9" d="M37,105a27.48,27.48,0,0,1-19-1A27.55,27.55,0,0,1,2,79c.14-7.34,3.66-12.59,6-16,4.81-7,10.31-10.16,25-18C61.71,29.67,64.36,29.13,65,30c1.13,1.54-5.7,5.22-10,14-9.34,19.08,6.75,34.72-3,50C47,101.77,38.55,104.53,37,105Z" transform="translate(-1.75 -3.47)"/><line class="cls-10" x1="42.25" y1="73.53" x2="14.25" y2="75.53"/><path class="cls-11" d="M44.36,77.34,25.83,96.25l17.8-19.59a.5.5,0,0,1,.74.67Z" transform="translate(-1.75 -3.47)"/><path class="cls-11" d="M15.63,78.66,33.5,60,16.37,79.34a.5.5,0,0,1-.75-.66Z" transform="translate(-1.75 -3.47)"/></g></svg>